<svg width="548" height="222" viewBox="0 0 548 222" fill="none" xmlns="http://www.w3.org/2000/svg">
<path d="M12.0532 9.96979C8.11506 9.96979 4.9294 8.24015 3.80224 19.1558C3.18277 25.1549 3.38066 31.3621 3.38066 37.5279" stroke="#251408" stroke-opacity="0.85" stroke-width="5" stroke-linecap="round"/>
<path d="M3.92383 59.8372V93.9567" stroke="#251408" stroke-opacity="0.85" stroke-width="5" stroke-linecap="round"/>
<path d="M3.92387 122.827C3.92387 135.149 3.38184 147.288 3.38184 159.571" stroke="#251408" stroke-opacity="0.85" stroke-width="5" stroke-linecap="round"/>
<path d="M3.38184 187.129C3.68827 196.774 3.84556 217.312 9.34418 217.312" stroke="#251408" stroke-opacity="0.85" stroke-width="5" stroke-linecap="round"/>
<path d="M18.5586 212.063C24.1892 212.063 29.1694 218.624 34.8195 218.624" stroke="#251408" stroke-opacity="0.85" stroke-width="5" stroke-linecap="round"/>
<path d="M44.0322 216H59.2091" stroke="#251408" stroke-opacity="0.85" stroke-width="5" stroke-linecap="round"/>
<path d="M73.3027 216C78.8922 216 84.4804 214.688 90.1057 214.688" stroke="#251408" stroke-opacity="0.85" stroke-width="5" stroke-linecap="round"/>
<path d="M103.656 216C108.02 216 112.315 217.312 116.665 217.312" stroke="#251408" stroke-opacity="0.85" stroke-width="5" stroke-linecap="round"/>
<path d="M130.167 213.432C134.358 213.432 138.452 214.744 142.634 214.744" stroke="#251408" stroke-opacity="0.85" stroke-width="5" stroke-linecap="round"/>
<path d="M157.385 216.698C157.908 211.629 169.698 216.698 172.562 216.698" stroke="#251408" stroke-opacity="0.85" stroke-width="5" stroke-linecap="round"/>
<path d="M186.277 215.404C187.171 211.942 193.793 214.091 195.492 214.091C198.202 214.091 200.912 214.091 203.622 214.091" stroke="#251408" stroke-opacity="0.85" stroke-width="5" stroke-linecap="round"/>
<path d="M218.518 215.758C224.137 215.758 229.696 214.446 235.321 214.446" stroke="#251408" stroke-opacity="0.85" stroke-width="5" stroke-linecap="round"/>
<path d="M246.993 212.418C251.905 212.418 256.746 213.73 261.628 213.73" stroke="#251408" stroke-opacity="0.85" stroke-width="5" stroke-linecap="round"/>
<path d="M271.686 216C277.308 216 282.871 214.688 288.489 214.688" stroke="#251408" stroke-opacity="0.85" stroke-width="5" stroke-linecap="round"/>
<path d="M298.246 214.688H312.339" stroke="#251408" stroke-opacity="0.85" stroke-width="5" stroke-linecap="round"/>
<path d="M322.095 216C327.395 216 332.563 213.375 337.814 213.375" stroke="#251408" stroke-opacity="0.85" stroke-width="5" stroke-linecap="round"/>
<path d="M347.571 214.688C353.922 214.688 360.217 216 366.542 216" stroke="#251408" stroke-opacity="0.85" stroke-width="5" stroke-linecap="round"/>
<path d="M378.467 216C382.331 216 386.196 216 390.06 216C392.516 216 395.139 216.914 397.438 214.688" stroke="#251408" stroke-opacity="0.85" stroke-width="5" stroke-linecap="round"/>
<path d="M411.531 216C417.701 216 423.833 212.063 429.96 212.063" stroke="#251408" stroke-opacity="0.85" stroke-width="5" stroke-linecap="round"/>
<path d="M439.716 214.688H460.313" stroke="#251408" stroke-opacity="0.85" stroke-width="5" stroke-linecap="round"/>
<path d="M473.323 216H492.294" stroke="#251408" stroke-opacity="0.85" stroke-width="5" stroke-linecap="round"/>
<path d="M503.676 214.688C509.673 214.688 515.553 217.312 521.563 217.312" stroke="#251408" stroke-opacity="0.85" stroke-width="5" stroke-linecap="round"/>
<path d="M532.945 216C536.541 216 540.477 217.025 543.665 212.063C545.583 209.079 544.87 201.156 544.87 196.315" stroke="#251408" stroke-opacity="0.85" stroke-width="5" stroke-linecap="round"/>
<path d="M544.328 175.319C544.328 168.24 543.244 161.31 543.244 154.322" stroke="#251408" stroke-opacity="0.85" stroke-width="5" stroke-linecap="round"/>
<path d="M543.245 133.325C543.245 123.002 542.978 111.645 544.329 101.83" stroke="#251408" stroke-opacity="0.85" stroke-width="5" stroke-linecap="round"/>
<path d="M542.16 48.0264V79.5214" stroke="#251408" stroke-opacity="0.85" stroke-width="5" stroke-linecap="round"/>
<path d="M542.702 29.6543C543.924 28.5446 543.538 10.2142 542.672 7.4183C540.66 0.923131 534.766 3.40852 531.861 3.40852" stroke="#251408" stroke-opacity="0.85" stroke-width="5" stroke-linecap="round"/>
<path d="M521.022 8.65768C515.934 3.96485 507.541 7.34539 502.051 7.34539" stroke="#251408" stroke-opacity="0.85" stroke-width="5" stroke-linecap="round"/>
<path d="M489.583 6.03299C482.614 6.03299 475.343 7.50482 468.443 4.7207" stroke="#251408" stroke-opacity="0.85" stroke-width="5" stroke-linecap="round"/>
<path d="M455.435 3.40845C448.302 4.73694 441.486 7.34532 434.296 7.34532" stroke="#251408" stroke-opacity="0.85" stroke-width="5" stroke-linecap="round"/>
<path d="M402.317 7.34546H419.662" stroke="#251408" stroke-opacity="0.85" stroke-width="5" stroke-linecap="round"/>
<path d="M386.597 7.34546C378.467 7.34546 370.35 8.65775 362.206 8.65775" stroke="#251408" stroke-opacity="0.85" stroke-width="5" stroke-linecap="round"/>
<path d="M348.654 9.96983C339.87 9.96983 330.727 9.9516 322.095 6.03296" stroke="#251408" stroke-opacity="0.85" stroke-width="5" stroke-linecap="round"/>
<path d="M308.545 8.65775C303.462 8.65775 298.42 7.34546 293.368 7.34546" stroke="#251408" stroke-opacity="0.85" stroke-width="5" stroke-linecap="round"/>
<path d="M261.93 6.03296H277.649" stroke="#251408" stroke-opacity="0.85" stroke-width="5" stroke-linecap="round"/>
<path d="M246.211 8.65771C239.885 8.65771 233.522 9.97001 227.24 9.97001" stroke="#251408" stroke-opacity="0.85" stroke-width="5" stroke-linecap="round"/>
<path d="M190.924 7.34546H209.895" stroke="#251408" stroke-opacity="0.85" stroke-width="5" stroke-linecap="round"/>
<path d="M171.411 8.65771C163.751 9.89397 155.703 11.7244 148.104 8.65771" stroke="#251408" stroke-opacity="0.85" stroke-width="5" stroke-linecap="round"/>
<path d="M135.095 8.65754C128.579 8.65754 121.99 6.03296 115.582 6.03296" stroke="#251408" stroke-opacity="0.85" stroke-width="5" stroke-linecap="round"/>
<path d="M85.7695 7.34546H99.3203" stroke="#251408" stroke-opacity="0.85" stroke-width="5" stroke-linecap="round"/>
<path d="M21.2676 7.34546C25.1172 7.34546 28.8488 8.65775 32.6502 8.65775" stroke="#251408" stroke-opacity="0.85" stroke-width="5" stroke-linecap="round"/>
<path d="M40.7812 8.65775C45.0969 8.65775 49.4418 7.34546 53.79 7.34546" stroke="#251408" stroke-opacity="0.85" stroke-width="5" stroke-linecap="round"/>
<path d="M64.6309 6.03299C66.5231 6.03299 76.2283 8.92975 77.0976 4.7207" stroke="#251408" stroke-opacity="0.85" stroke-width="5" stroke-linecap="round"/>
</svg>
