<svg width="944" height="221" viewBox="0 0 944 221" fill="none" xmlns="http://www.w3.org/2000/svg">
<path d="M18.4637 9.54206C11.6468 9.54206 6.13235 7.81241 4.18123 18.7281C3.10893 24.7271 3.45147 30.9344 3.45147 37.1002" stroke="#251408" stroke-opacity="0.85" stroke-width="5" stroke-linecap="round"/>
<path d="M4.38916 59.4094V93.529" stroke="#251408" stroke-opacity="0.85" stroke-width="5" stroke-linecap="round"/>
<path d="M4.38992 122.399C4.38992 134.722 3.45166 146.861 3.45166 159.143" stroke="#251408" stroke-opacity="0.85" stroke-width="5" stroke-linecap="round"/>
<path d="M3.45166 186.702C3.98211 196.346 4.25437 216.884 13.7725 216.884" stroke="#251408" stroke-opacity="0.85" stroke-width="5" stroke-linecap="round"/>
<path d="M29.7231 211.635C39.4698 211.635 48.0905 218.197 57.871 218.197" stroke="#251408" stroke-opacity="0.85" stroke-width="5" stroke-linecap="round"/>
<path d="M73.8208 215.572H100.092" stroke="#251408" stroke-opacity="0.85" stroke-width="5" stroke-linecap="round"/>
<path d="M124.488 215.572C134.163 215.572 143.837 214.26 153.574 214.26" stroke="#251408" stroke-opacity="0.85" stroke-width="5" stroke-linecap="round"/>
<path d="M177.03 215.572C184.583 215.572 192.017 216.884 199.548 216.884" stroke="#251408" stroke-opacity="0.85" stroke-width="5" stroke-linecap="round"/>
<path d="M222.92 213.004C230.175 213.004 237.261 214.316 244.5 214.316" stroke="#251408" stroke-opacity="0.85" stroke-width="5" stroke-linecap="round"/>
<path d="M270.033 216.271C270.939 211.202 291.347 216.271 296.304 216.271" stroke="#251408" stroke-opacity="0.85" stroke-width="5" stroke-linecap="round"/>
<path d="M320.046 214.976C321.593 211.514 333.055 213.663 335.996 213.663C340.688 213.663 345.379 213.663 350.07 213.663" stroke="#251408" stroke-opacity="0.85" stroke-width="5" stroke-linecap="round"/>
<path d="M375.856 215.33C385.584 215.33 395.206 214.018 404.943 214.018" stroke="#251408" stroke-opacity="0.85" stroke-width="5" stroke-linecap="round"/>
<path d="M425.145 211.99C433.648 211.99 442.026 213.303 450.478 213.303" stroke="#251408" stroke-opacity="0.85" stroke-width="5" stroke-linecap="round"/>
<path d="M467.892 215.572C477.624 215.572 487.253 214.26 496.978 214.26" stroke="#251408" stroke-opacity="0.85" stroke-width="5" stroke-linecap="round"/>
<path d="M513.866 214.26H538.261" stroke="#251408" stroke-opacity="0.85" stroke-width="5" stroke-linecap="round"/>
<path d="M555.15 215.572C564.324 215.572 573.271 212.948 582.359 212.948" stroke="#251408" stroke-opacity="0.85" stroke-width="5" stroke-linecap="round"/>
<path d="M599.248 214.26C610.241 214.26 621.137 215.572 632.087 215.572" stroke="#251408" stroke-opacity="0.85" stroke-width="5" stroke-linecap="round"/>
<path d="M652.729 215.572C659.419 215.572 666.108 215.572 672.798 215.572C677.048 215.572 681.589 216.486 685.569 214.26" stroke="#251408" stroke-opacity="0.85" stroke-width="5" stroke-linecap="round"/>
<path d="M709.963 215.572C720.642 215.572 731.257 211.635 741.864 211.635" stroke="#251408" stroke-opacity="0.85" stroke-width="5" stroke-linecap="round"/>
<path d="M758.752 214.26H794.406" stroke="#251408" stroke-opacity="0.85" stroke-width="5" stroke-linecap="round"/>
<path d="M816.925 215.572H849.764" stroke="#251408" stroke-opacity="0.85" stroke-width="5" stroke-linecap="round"/>
<path d="M869.467 214.26C879.848 214.26 890.026 216.884 900.429 216.884" stroke="#251408" stroke-opacity="0.85" stroke-width="5" stroke-linecap="round"/>
<path d="M920.134 215.572C926.357 215.572 933.172 216.597 938.691 211.635C942.009 208.651 940.776 200.728 940.776 195.887" stroke="#251408" stroke-opacity="0.85" stroke-width="5" stroke-linecap="round"/>
<path d="M939.836 174.891C939.836 167.813 937.96 160.882 937.96 153.894" stroke="#251408" stroke-opacity="0.85" stroke-width="5" stroke-linecap="round"/>
<path d="M937.961 132.898C937.961 122.574 937.498 111.218 939.838 101.403" stroke="#251408" stroke-opacity="0.85" stroke-width="5" stroke-linecap="round"/>
<path d="M936.084 47.5986V79.0936" stroke="#251408" stroke-opacity="0.85" stroke-width="5" stroke-linecap="round"/>
<path d="M937.023 29.2266C939.139 28.1169 938.47 9.78643 936.971 6.99056C933.488 0.495397 923.285 2.98079 918.258 2.98079" stroke="#251408" stroke-opacity="0.85" stroke-width="5" stroke-linecap="round"/>
<path d="M899.492 8.22994C890.684 3.53711 876.156 6.91765 866.652 6.91765" stroke="#251408" stroke-opacity="0.85" stroke-width="5" stroke-linecap="round"/>
<path d="M845.072 5.60526C833.01 5.60526 820.423 7.07709 808.479 4.29297" stroke="#251408" stroke-opacity="0.85" stroke-width="5" stroke-linecap="round"/>
<path d="M785.962 2.98071C773.614 4.3092 761.817 6.91759 749.37 6.91759" stroke="#251408" stroke-opacity="0.85" stroke-width="5" stroke-linecap="round"/>
<path d="M694.012 6.91772H724.037" stroke="#251408" stroke-opacity="0.85" stroke-width="5" stroke-linecap="round"/>
<path d="M666.802 6.91772C652.729 6.91772 638.677 8.23002 624.581 8.23002" stroke="#251408" stroke-opacity="0.85" stroke-width="5" stroke-linecap="round"/>
<path d="M601.125 9.5421C585.919 9.5421 570.093 9.52386 555.15 5.60522" stroke="#251408" stroke-opacity="0.85" stroke-width="5" stroke-linecap="round"/>
<path d="M531.693 8.23002C522.894 8.23002 514.167 6.91772 505.422 6.91772" stroke="#251408" stroke-opacity="0.85" stroke-width="5" stroke-linecap="round"/>
<path d="M451.002 5.60522H478.212" stroke="#251408" stroke-opacity="0.85" stroke-width="5" stroke-linecap="round"/>
<path d="M423.792 8.22998C412.841 8.22998 401.828 9.54227 390.953 9.54227" stroke="#251408" stroke-opacity="0.85" stroke-width="5" stroke-linecap="round"/>
<path d="M328.09 6.91772H360.929" stroke="#251408" stroke-opacity="0.85" stroke-width="5" stroke-linecap="round"/>
<path d="M294.313 8.22998C281.054 9.46624 267.123 11.2966 253.967 8.22998" stroke="#251408" stroke-opacity="0.85" stroke-width="5" stroke-linecap="round"/>
<path d="M231.45 8.22981C220.17 8.22981 208.765 5.60522 197.672 5.60522" stroke="#251408" stroke-opacity="0.85" stroke-width="5" stroke-linecap="round"/>
<path d="M146.067 6.91772H169.523" stroke="#251408" stroke-opacity="0.85" stroke-width="5" stroke-linecap="round"/>
<path d="M34.4136 6.91772C41.0773 6.91772 47.5368 8.23002 54.1171 8.23002" stroke="#251408" stroke-opacity="0.85" stroke-width="5" stroke-linecap="round"/>
<path d="M68.1919 8.23002C75.6624 8.23002 83.1834 6.91772 90.7102 6.91772" stroke="#251408" stroke-opacity="0.85" stroke-width="5" stroke-linecap="round"/>
<path d="M109.475 5.60526C112.75 5.60526 129.55 8.50202 131.055 4.29297" stroke="#251408" stroke-opacity="0.85" stroke-width="5" stroke-linecap="round"/>
</svg>
