<svg width="339" height="222" viewBox="0 0 339 222" fill="none" xmlns="http://www.w3.org/2000/svg">
<path d="M8.78648 9.96979C6.3686 9.96979 4.4127 8.24015 3.72066 19.1558C3.34033 25.1549 3.46182 31.3621 3.46182 37.5279" stroke="#251408" stroke-opacity="0.85" stroke-width="5" stroke-linecap="round"/>
<path d="M3.79492 59.8372V93.9567" stroke="#251408" stroke-opacity="0.85" stroke-width="5" stroke-linecap="round"/>
<path d="M3.7947 122.827C3.7947 135.149 3.46191 147.288 3.46191 159.571" stroke="#251408" stroke-opacity="0.85" stroke-width="5" stroke-linecap="round"/>
<path d="M3.46191 187.129C3.65006 196.774 3.74663 217.312 7.12261 217.312" stroke="#251408" stroke-opacity="0.85" stroke-width="5" stroke-linecap="round"/>
<path d="M12.7803 212.063C16.2373 212.063 19.295 218.624 22.764 218.624" stroke="#251408" stroke-opacity="0.85" stroke-width="5" stroke-linecap="round"/>
<path d="M28.4209 216H37.739" stroke="#251408" stroke-opacity="0.85" stroke-width="5" stroke-linecap="round"/>
<path d="M46.3916 216C49.8234 216 53.2544 214.688 56.7081 214.688" stroke="#251408" stroke-opacity="0.85" stroke-width="5" stroke-linecap="round"/>
<path d="M65.0283 216C67.7074 216 70.3442 217.312 73.0153 217.312" stroke="#251408" stroke-opacity="0.85" stroke-width="5" stroke-linecap="round"/>
<path d="M81.3047 213.432C83.878 213.432 86.3911 214.744 88.9589 214.744" stroke="#251408" stroke-opacity="0.85" stroke-width="5" stroke-linecap="round"/>
<path d="M98.0156 216.698C98.337 211.629 105.576 216.698 107.334 216.698" stroke="#251408" stroke-opacity="0.85" stroke-width="5" stroke-linecap="round"/>
<path d="M115.755 215.404C116.304 211.942 120.369 214.091 121.412 214.091C123.076 214.091 124.74 214.091 126.404 214.091" stroke="#251408" stroke-opacity="0.85" stroke-width="5" stroke-linecap="round"/>
<path d="M135.55 215.758C139 215.758 142.413 214.446 145.866 214.446" stroke="#251408" stroke-opacity="0.85" stroke-width="5" stroke-linecap="round"/>
<path d="M153.032 212.418C156.048 212.418 159.02 213.73 162.018 213.73" stroke="#251408" stroke-opacity="0.85" stroke-width="5" stroke-linecap="round"/>
<path d="M168.193 216C171.645 216 175.061 214.688 178.51 214.688" stroke="#251408" stroke-opacity="0.85" stroke-width="5" stroke-linecap="round"/>
<path d="M184.5 214.688H193.153" stroke="#251408" stroke-opacity="0.85" stroke-width="5" stroke-linecap="round"/>
<path d="M199.143 216C202.397 216 205.57 213.375 208.794 213.375" stroke="#251408" stroke-opacity="0.85" stroke-width="5" stroke-linecap="round"/>
<path d="M214.784 214.688C218.684 214.688 222.548 216 226.432 216" stroke="#251408" stroke-opacity="0.85" stroke-width="5" stroke-linecap="round"/>
<path d="M233.754 216C236.127 216 238.499 216 240.872 216C242.38 216 243.99 216.914 245.402 214.688" stroke="#251408" stroke-opacity="0.85" stroke-width="5" stroke-linecap="round"/>
<path d="M254.054 216C257.841 216 261.607 212.063 265.369 212.063" stroke="#251408" stroke-opacity="0.85" stroke-width="5" stroke-linecap="round"/>
<path d="M271.358 214.688H284.004" stroke="#251408" stroke-opacity="0.85" stroke-width="5" stroke-linecap="round"/>
<path d="M291.992 216H303.64" stroke="#251408" stroke-opacity="0.85" stroke-width="5" stroke-linecap="round"/>
<path d="M310.628 214.688C314.31 214.688 317.92 217.312 321.61 217.312" stroke="#251408" stroke-opacity="0.85" stroke-width="5" stroke-linecap="round"/>
<path d="M328.599 216C330.806 216 333.223 217.025 335.18 212.063C336.358 209.079 335.92 201.156 335.92 196.315" stroke="#251408" stroke-opacity="0.85" stroke-width="5" stroke-linecap="round"/>
<path d="M335.587 175.319C335.587 168.24 334.922 161.31 334.922 154.322" stroke="#251408" stroke-opacity="0.85" stroke-width="5" stroke-linecap="round"/>
<path d="M334.922 133.325C334.922 123.002 334.758 111.645 335.588 101.83" stroke="#251408" stroke-opacity="0.85" stroke-width="5" stroke-linecap="round"/>
<path d="M334.256 48.0264V79.5214" stroke="#251408" stroke-opacity="0.85" stroke-width="5" stroke-linecap="round"/>
<path d="M334.588 29.6543C335.339 28.5446 335.102 10.2142 334.57 7.4183C333.335 0.923131 329.716 3.40852 327.933 3.40852" stroke="#251408" stroke-opacity="0.85" stroke-width="5" stroke-linecap="round"/>
<path d="M321.278 8.65768C318.154 3.96485 313.001 7.34539 309.63 7.34539" stroke="#251408" stroke-opacity="0.85" stroke-width="5" stroke-linecap="round"/>
<path d="M301.975 6.03299C297.697 6.03299 293.232 7.50482 288.996 4.7207" stroke="#251408" stroke-opacity="0.85" stroke-width="5" stroke-linecap="round"/>
<path d="M281.01 3.40845C276.63 4.73694 272.446 7.34532 268.031 7.34532" stroke="#251408" stroke-opacity="0.85" stroke-width="5" stroke-linecap="round"/>
<path d="M248.396 7.34546H259.046" stroke="#251408" stroke-opacity="0.85" stroke-width="5" stroke-linecap="round"/>
<path d="M238.745 7.34546C233.753 7.34546 228.77 8.65775 223.77 8.65775" stroke="#251408" stroke-opacity="0.85" stroke-width="5" stroke-linecap="round"/>
<path d="M215.449 9.96983C210.056 9.96983 204.443 9.9516 199.143 6.03296" stroke="#251408" stroke-opacity="0.85" stroke-width="5" stroke-linecap="round"/>
<path d="M190.823 8.65775C187.702 8.65775 184.607 7.34546 181.505 7.34546" stroke="#251408" stroke-opacity="0.85" stroke-width="5" stroke-linecap="round"/>
<path d="M162.203 6.03296H171.854" stroke="#251408" stroke-opacity="0.85" stroke-width="5" stroke-linecap="round"/>
<path d="M152.552 8.65771C148.668 8.65771 144.761 9.97001 140.904 9.97001" stroke="#251408" stroke-opacity="0.85" stroke-width="5" stroke-linecap="round"/>
<path d="M118.607 7.34546H130.255" stroke="#251408" stroke-opacity="0.85" stroke-width="5" stroke-linecap="round"/>
<path d="M106.627 8.65771C101.925 9.89397 96.9835 11.7244 92.3174 8.65771" stroke="#251408" stroke-opacity="0.85" stroke-width="5" stroke-linecap="round"/>
<path d="M84.3301 8.65754C80.3293 8.65754 76.284 6.03296 72.3496 6.03296" stroke="#251408" stroke-opacity="0.85" stroke-width="5" stroke-linecap="round"/>
<path d="M54.0459 7.34546H62.3657" stroke="#251408" stroke-opacity="0.85" stroke-width="5" stroke-linecap="round"/>
<path d="M14.4434 7.34546C16.8069 7.34546 19.098 8.65775 21.432 8.65775" stroke="#251408" stroke-opacity="0.85" stroke-width="5" stroke-linecap="round"/>
<path d="M26.4248 8.65775C29.0745 8.65775 31.7421 7.34546 34.4118 7.34546" stroke="#251408" stroke-opacity="0.85" stroke-width="5" stroke-linecap="round"/>
<path d="M41.0674 6.03299C42.2292 6.03299 48.1879 8.92975 48.7216 4.7207" stroke="#251408" stroke-opacity="0.85" stroke-width="5" stroke-linecap="round"/>
</svg>
