<svg width="437" height="222" viewBox="0 0 437 222" fill="none" xmlns="http://www.w3.org/2000/svg">
<path d="M9.79796 9.96979C6.6634 9.96979 4.12776 8.24015 3.23059 19.1558C2.73752 25.1549 2.89503 31.3621 2.89503 37.5279" stroke="#251408" stroke-opacity="0.85" stroke-width="5" stroke-linecap="round"/>
<path d="M3.32715 59.8372V93.9567" stroke="#251408" stroke-opacity="0.85" stroke-width="5" stroke-linecap="round"/>
<path d="M3.32694 122.827C3.32694 135.149 2.89551 147.288 2.89551 159.571" stroke="#251408" stroke-opacity="0.85" stroke-width="5" stroke-linecap="round"/>
<path d="M2.89551 187.129C3.13942 196.774 3.26461 217.312 7.64127 217.312" stroke="#251408" stroke-opacity="0.85" stroke-width="5" stroke-linecap="round"/>
<path d="M14.9756 212.063C19.4573 212.063 23.4213 218.624 27.9186 218.624" stroke="#251408" stroke-opacity="0.85" stroke-width="5" stroke-linecap="round"/>
<path d="M35.252 216H47.3321" stroke="#251408" stroke-opacity="0.85" stroke-width="5" stroke-linecap="round"/>
<path d="M58.5498 216C62.9988 216 67.4468 214.688 71.9242 214.688" stroke="#251408" stroke-opacity="0.85" stroke-width="5" stroke-linecap="round"/>
<path d="M82.71 216C86.1831 216 89.6016 217.312 93.0644 217.312" stroke="#251408" stroke-opacity="0.85" stroke-width="5" stroke-linecap="round"/>
<path d="M103.812 213.432C107.148 213.432 110.406 214.744 113.734 214.744" stroke="#251408" stroke-opacity="0.85" stroke-width="5" stroke-linecap="round"/>
<path d="M125.476 216.698C125.892 211.629 135.276 216.698 137.556 216.698" stroke="#251408" stroke-opacity="0.85" stroke-width="5" stroke-linecap="round"/>
<path d="M148.473 215.404C149.184 211.942 154.454 214.091 155.807 214.091C157.964 214.091 160.121 214.091 162.279 214.091" stroke="#251408" stroke-opacity="0.85" stroke-width="5" stroke-linecap="round"/>
<path d="M174.135 215.758C178.608 215.758 183.032 214.446 187.509 214.446" stroke="#251408" stroke-opacity="0.85" stroke-width="5" stroke-linecap="round"/>
<path d="M196.8 212.418C200.71 212.418 204.562 213.73 208.448 213.73" stroke="#251408" stroke-opacity="0.85" stroke-width="5" stroke-linecap="round"/>
<path d="M216.454 216C220.929 216 225.357 214.688 229.829 214.688" stroke="#251408" stroke-opacity="0.85" stroke-width="5" stroke-linecap="round"/>
<path d="M237.595 214.688H248.812" stroke="#251408" stroke-opacity="0.85" stroke-width="5" stroke-linecap="round"/>
<path d="M256.577 216C260.796 216 264.91 213.375 269.089 213.375" stroke="#251408" stroke-opacity="0.85" stroke-width="5" stroke-linecap="round"/>
<path d="M276.855 214.688C281.911 214.688 286.921 216 291.956 216" stroke="#251408" stroke-opacity="0.85" stroke-width="5" stroke-linecap="round"/>
<path d="M301.447 216C304.523 216 307.599 216 310.675 216C312.63 216 314.717 216.914 316.547 214.688" stroke="#251408" stroke-opacity="0.85" stroke-width="5" stroke-linecap="round"/>
<path d="M327.765 216C332.675 216 337.556 212.063 342.433 212.063" stroke="#251408" stroke-opacity="0.85" stroke-width="5" stroke-linecap="round"/>
<path d="M350.198 214.688H366.593" stroke="#251408" stroke-opacity="0.85" stroke-width="5" stroke-linecap="round"/>
<path d="M376.948 216H392.048" stroke="#251408" stroke-opacity="0.85" stroke-width="5" stroke-linecap="round"/>
<path d="M401.107 214.688C405.881 214.688 410.561 217.312 415.345 217.312" stroke="#251408" stroke-opacity="0.85" stroke-width="5" stroke-linecap="round"/>
<path d="M424.405 216C427.267 216 430.4 217.025 432.938 212.063C434.464 209.079 433.897 201.156 433.897 196.315" stroke="#251408" stroke-opacity="0.85" stroke-width="5" stroke-linecap="round"/>
<path d="M433.465 175.319C433.465 168.24 432.603 161.31 432.603 154.322" stroke="#251408" stroke-opacity="0.85" stroke-width="5" stroke-linecap="round"/>
<path d="M432.603 133.325C432.603 123.002 432.39 111.645 433.466 101.83" stroke="#251408" stroke-opacity="0.85" stroke-width="5" stroke-linecap="round"/>
<path d="M431.739 48.0264V79.5214" stroke="#251408" stroke-opacity="0.85" stroke-width="5" stroke-linecap="round"/>
<path d="M432.171 29.6543C433.144 28.5446 432.836 10.2142 432.147 7.4183C430.545 0.923131 425.854 3.40852 423.542 3.40852" stroke="#251408" stroke-opacity="0.85" stroke-width="5" stroke-linecap="round"/>
<path d="M414.915 8.65768C410.865 3.96485 404.185 7.34539 399.814 7.34539" stroke="#251408" stroke-opacity="0.85" stroke-width="5" stroke-linecap="round"/>
<path d="M389.89 6.03299C384.344 6.03299 378.556 7.50482 373.064 4.7207" stroke="#251408" stroke-opacity="0.85" stroke-width="5" stroke-linecap="round"/>
<path d="M362.711 3.40845C357.033 4.73694 351.608 7.34532 345.885 7.34532" stroke="#251408" stroke-opacity="0.85" stroke-width="5" stroke-linecap="round"/>
<path d="M320.431 7.34546H334.237" stroke="#251408" stroke-opacity="0.85" stroke-width="5" stroke-linecap="round"/>
<path d="M307.918 7.34546C301.447 7.34546 294.986 8.65775 288.504 8.65775" stroke="#251408" stroke-opacity="0.85" stroke-width="5" stroke-linecap="round"/>
<path d="M277.717 9.96983C270.725 9.96983 263.448 9.9516 256.577 6.03296" stroke="#251408" stroke-opacity="0.85" stroke-width="5" stroke-linecap="round"/>
<path d="M245.792 8.65775C241.746 8.65775 237.733 7.34546 233.712 7.34546" stroke="#251408" stroke-opacity="0.85" stroke-width="5" stroke-linecap="round"/>
<path d="M208.688 6.03296H221.2" stroke="#251408" stroke-opacity="0.85" stroke-width="5" stroke-linecap="round"/>
<path d="M196.177 8.65771C191.142 8.65771 186.077 9.97001 181.077 9.97001" stroke="#251408" stroke-opacity="0.85" stroke-width="5" stroke-linecap="round"/>
<path d="M152.171 7.34546H167.271" stroke="#251408" stroke-opacity="0.85" stroke-width="5" stroke-linecap="round"/>
<path d="M136.64 8.65771C130.543 9.89397 124.137 11.7244 118.088 8.65771" stroke="#251408" stroke-opacity="0.85" stroke-width="5" stroke-linecap="round"/>
<path d="M107.734 8.65754C102.547 8.65754 97.3027 6.03296 92.2021 6.03296" stroke="#251408" stroke-opacity="0.85" stroke-width="5" stroke-linecap="round"/>
<path d="M68.4727 7.34546H79.2585" stroke="#251408" stroke-opacity="0.85" stroke-width="5" stroke-linecap="round"/>
<path d="M17.1318 7.34546C20.1959 7.34546 23.1662 8.65775 26.1919 8.65775" stroke="#251408" stroke-opacity="0.85" stroke-width="5" stroke-linecap="round"/>
<path d="M32.6641 8.65775C36.0992 8.65775 39.5575 7.34546 43.0185 7.34546" stroke="#251408" stroke-opacity="0.85" stroke-width="5" stroke-linecap="round"/>
<path d="M51.6475 6.03299C53.1536 6.03299 60.8785 8.92975 61.5704 4.7207" stroke="#251408" stroke-opacity="0.85" stroke-width="5" stroke-linecap="round"/>
</svg>
