<svg width="692" height="222" viewBox="0 0 692 222" fill="none" xmlns="http://www.w3.org/2000/svg">
<path d="M14.0002 9.96979C9.01244 9.96979 4.97766 8.24015 3.55006 19.1558C2.76549 25.1549 3.01612 31.3621 3.01612 37.5279" stroke="#251408" stroke-opacity="0.85" stroke-width="5" stroke-linecap="round"/>
<path d="M3.70215 59.8372V93.9567" stroke="#251408" stroke-opacity="0.85" stroke-width="5" stroke-linecap="round"/>
<path d="M3.70311 122.827C3.70311 135.149 3.0166 147.288 3.0166 159.571" stroke="#251408" stroke-opacity="0.85" stroke-width="5" stroke-linecap="round"/>
<path d="M3.0166 187.129C3.40472 196.774 3.60392 217.312 10.5682 217.312" stroke="#251408" stroke-opacity="0.85" stroke-width="5" stroke-linecap="round"/>
<path d="M22.2388 212.063C29.3702 212.063 35.6778 218.624 42.8339 218.624" stroke="#251408" stroke-opacity="0.85" stroke-width="5" stroke-linecap="round"/>
<path d="M54.5039 216H73.7261" stroke="#251408" stroke-opacity="0.85" stroke-width="5" stroke-linecap="round"/>
<path d="M91.5757 216C98.655 216 105.733 214.688 112.857 214.688" stroke="#251408" stroke-opacity="0.85" stroke-width="5" stroke-linecap="round"/>
<path d="M130.02 216C135.546 216 140.986 217.312 146.496 217.312" stroke="#251408" stroke-opacity="0.85" stroke-width="5" stroke-linecap="round"/>
<path d="M163.597 213.432C168.905 213.432 174.089 214.744 179.386 214.744" stroke="#251408" stroke-opacity="0.85" stroke-width="5" stroke-linecap="round"/>
<path d="M198.068 216.698C198.731 211.629 213.663 216.698 217.291 216.698" stroke="#251408" stroke-opacity="0.85" stroke-width="5" stroke-linecap="round"/>
<path d="M234.662 215.404C235.793 211.942 244.18 214.091 246.332 214.091C249.765 214.091 253.197 214.091 256.63 214.091" stroke="#251408" stroke-opacity="0.85" stroke-width="5" stroke-linecap="round"/>
<path d="M275.497 215.758C282.614 215.758 289.655 214.446 296.779 214.446" stroke="#251408" stroke-opacity="0.85" stroke-width="5" stroke-linecap="round"/>
<path d="M311.56 212.418C317.781 212.418 323.912 213.73 330.095 213.73" stroke="#251408" stroke-opacity="0.85" stroke-width="5" stroke-linecap="round"/>
<path d="M342.837 216C349.958 216 357.004 214.688 364.119 214.688" stroke="#251408" stroke-opacity="0.85" stroke-width="5" stroke-linecap="round"/>
<path d="M376.476 214.688H394.325" stroke="#251408" stroke-opacity="0.85" stroke-width="5" stroke-linecap="round"/>
<path d="M406.682 216C413.394 216 419.94 213.375 426.59 213.375" stroke="#251408" stroke-opacity="0.85" stroke-width="5" stroke-linecap="round"/>
<path d="M438.947 214.688C446.991 214.688 454.963 216 462.975 216" stroke="#251408" stroke-opacity="0.85" stroke-width="5" stroke-linecap="round"/>
<path d="M478.079 216C482.974 216 487.868 216 492.763 216C495.873 216 499.195 216.914 502.107 214.688" stroke="#251408" stroke-opacity="0.85" stroke-width="5" stroke-linecap="round"/>
<path d="M519.955 216C527.769 216 535.536 212.063 543.296 212.063" stroke="#251408" stroke-opacity="0.85" stroke-width="5" stroke-linecap="round"/>
<path d="M555.654 214.688H581.742" stroke="#251408" stroke-opacity="0.85" stroke-width="5" stroke-linecap="round"/>
<path d="M598.217 216H622.244" stroke="#251408" stroke-opacity="0.85" stroke-width="5" stroke-linecap="round"/>
<path d="M636.661 214.688C644.257 214.688 651.704 217.312 659.316 217.312" stroke="#251408" stroke-opacity="0.85" stroke-width="5" stroke-linecap="round"/>
<path d="M673.732 216C678.286 216 683.272 217.025 687.31 212.063C689.738 209.079 688.836 201.156 688.836 196.315" stroke="#251408" stroke-opacity="0.85" stroke-width="5" stroke-linecap="round"/>
<path d="M688.148 175.319C688.148 168.24 686.775 161.31 686.775 154.322" stroke="#251408" stroke-opacity="0.85" stroke-width="5" stroke-linecap="round"/>
<path d="M686.776 133.325C686.776 123.002 686.438 111.645 688.149 101.83" stroke="#251408" stroke-opacity="0.85" stroke-width="5" stroke-linecap="round"/>
<path d="M685.403 48.0264V79.5214" stroke="#251408" stroke-opacity="0.85" stroke-width="5" stroke-linecap="round"/>
<path d="M686.089 29.6543C687.638 28.5446 687.148 10.2142 686.051 7.4183C683.503 0.923131 676.038 3.40852 672.359 3.40852" stroke="#251408" stroke-opacity="0.85" stroke-width="5" stroke-linecap="round"/>
<path d="M658.63 8.65768C652.186 3.96485 641.556 7.34539 634.603 7.34539" stroke="#251408" stroke-opacity="0.85" stroke-width="5" stroke-linecap="round"/>
<path d="M618.812 6.03299C609.986 6.03299 600.777 7.50482 592.038 4.7207" stroke="#251408" stroke-opacity="0.85" stroke-width="5" stroke-linecap="round"/>
<path d="M575.563 3.40845C566.528 4.73694 557.896 7.34532 548.789 7.34532" stroke="#251408" stroke-opacity="0.85" stroke-width="5" stroke-linecap="round"/>
<path d="M508.285 7.34546H530.253" stroke="#251408" stroke-opacity="0.85" stroke-width="5" stroke-linecap="round"/>
<path d="M488.375 7.34546C478.078 7.34546 467.797 8.65775 457.482 8.65775" stroke="#251408" stroke-opacity="0.85" stroke-width="5" stroke-linecap="round"/>
<path d="M440.32 9.96983C429.194 9.96983 417.615 9.9516 406.682 6.03296" stroke="#251408" stroke-opacity="0.85" stroke-width="5" stroke-linecap="round"/>
<path d="M389.519 8.65775C383.081 8.65775 376.695 7.34546 370.297 7.34546" stroke="#251408" stroke-opacity="0.85" stroke-width="5" stroke-linecap="round"/>
<path d="M330.479 6.03296H350.388" stroke="#251408" stroke-opacity="0.85" stroke-width="5" stroke-linecap="round"/>
<path d="M310.571 8.65771C302.558 8.65771 294.5 9.97001 286.543 9.97001" stroke="#251408" stroke-opacity="0.85" stroke-width="5" stroke-linecap="round"/>
<path d="M240.548 7.34546H264.576" stroke="#251408" stroke-opacity="0.85" stroke-width="5" stroke-linecap="round"/>
<path d="M215.833 8.65771C206.132 9.89397 195.939 11.7244 186.313 8.65771" stroke="#251408" stroke-opacity="0.85" stroke-width="5" stroke-linecap="round"/>
<path d="M169.838 8.65754C161.585 8.65754 153.24 6.03296 145.124 6.03296" stroke="#251408" stroke-opacity="0.85" stroke-width="5" stroke-linecap="round"/>
<path d="M107.365 7.34546H124.527" stroke="#251408" stroke-opacity="0.85" stroke-width="5" stroke-linecap="round"/>
<path d="M25.6704 7.34546C30.5461 7.34546 35.2724 8.65775 40.087 8.65775" stroke="#251408" stroke-opacity="0.85" stroke-width="5" stroke-linecap="round"/>
<path d="M50.3853 8.65775C55.8513 8.65775 61.3542 7.34546 66.8614 7.34546" stroke="#251408" stroke-opacity="0.85" stroke-width="5" stroke-linecap="round"/>
<path d="M80.5908 6.03299C82.9874 6.03299 95.2795 8.92975 96.3805 4.7207" stroke="#251408" stroke-opacity="0.85" stroke-width="5" stroke-linecap="round"/>
</svg>
