<svg width="544" height="54" viewBox="0 0 544 54" fill="none" xmlns="http://www.w3.org/2000/svg">
<path d="M7.10433 9.45557C4.97543 9.45557 3.99937 11.0858 3.32715 15.9111" stroke="#251408" stroke-opacity="0.85" stroke-width="5" stroke-linecap="round"/>
<path d="M2.78693 32.6956C2.78693 37.7538 2.49778 44.9457 4.94532 46.8978" stroke="#251408" stroke-opacity="0.85" stroke-width="5" stroke-linecap="round"/>
<path d="M16.8174 8.16431H28.1489" stroke="#251408" stroke-opacity="0.85" stroke-width="5" stroke-linecap="round"/>
<path d="M39.4805 9.45542C43.2894 9.45542 47.053 9.66336 50.812 8.16431" stroke="#251408" stroke-opacity="0.85" stroke-width="5" stroke-linecap="round"/>
<path d="M58.3652 6.87329H70.776" stroke="#251408" stroke-opacity="0.85" stroke-width="5" stroke-linecap="round"/>
<path d="M86.4238 8.16431C90.3887 8.16431 94.3378 8.95707 98.295 9.45542" stroke="#251408" stroke-opacity="0.85" stroke-width="5" stroke-linecap="round"/>
<path d="M113.405 9.45561C117.73 8.76576 122.043 6.6685 126.356 5.58228" stroke="#251408" stroke-opacity="0.85" stroke-width="5" stroke-linecap="round"/>
<path d="M136.607 5.58228C142.198 5.58228 147.752 6.2662 153.335 6.87339" stroke="#251408" stroke-opacity="0.85" stroke-width="5" stroke-linecap="round"/>
<path d="M166.286 8.1644C169.554 8.1644 172.746 7.52188 175.999 6.87329" stroke="#251408" stroke-opacity="0.85" stroke-width="5" stroke-linecap="round"/>
<path d="M191.647 8.16431H202.439" stroke="#251408" stroke-opacity="0.85" stroke-width="5" stroke-linecap="round"/>
<path d="M217.549 8.16431H222.945" stroke="#251408" stroke-opacity="0.85" stroke-width="5" stroke-linecap="round"/>
<path d="M233.735 8.16431H245.607" stroke="#251408" stroke-opacity="0.85" stroke-width="5" stroke-linecap="round"/>
<path d="M259.637 5.58228H271.508" stroke="#251408" stroke-opacity="0.85" stroke-width="5" stroke-linecap="round"/>
<path d="M282.3 6.87339C285.216 6.87339 288.067 6.95415 290.933 5.58228" stroke="#251408" stroke-opacity="0.85" stroke-width="5" stroke-linecap="round"/>
<path d="M302.804 5.58228C306.606 6.28208 310.306 6.87339 314.135 6.87339" stroke="#251408" stroke-opacity="0.85" stroke-width="5" stroke-linecap="round"/>
<path d="M326.007 5.58228H343.814" stroke="#251408" stroke-opacity="0.85" stroke-width="5" stroke-linecap="round"/>
<path d="M355.685 4.29102C360.546 4.46209 365.391 5.58213 370.254 5.58213" stroke="#251408" stroke-opacity="0.85" stroke-width="5" stroke-linecap="round"/>
<path d="M381.046 5.58213C386.453 5.58213 391.834 4.8528 397.234 4.29102" stroke="#251408" stroke-opacity="0.85" stroke-width="5" stroke-linecap="round"/>
<path d="M410.184 6.87324C412.677 6.37615 415.355 5.92018 417.738 4.29102" stroke="#251408" stroke-opacity="0.85" stroke-width="5" stroke-linecap="round"/>
<path d="M425.292 6.87329H435.544" stroke="#251408" stroke-opacity="0.85" stroke-width="5" stroke-linecap="round"/>
<path d="M449.035 9.45542C453.726 8.65364 458.353 8.16431 463.065 8.16431" stroke="#251408" stroke-opacity="0.85" stroke-width="5" stroke-linecap="round"/>
<path d="M473.318 5.58228H484.11" stroke="#251408" stroke-opacity="0.85" stroke-width="5" stroke-linecap="round"/>
<path d="M497.061 5.58223C493.446 5.58223 504.346 5.09802 507.853 3" stroke="#251408" stroke-opacity="0.85" stroke-width="5" stroke-linecap="round"/>
<path d="M517.565 8.1644C520.468 8.1644 523.312 6.87329 526.199 6.87329" stroke="#251408" stroke-opacity="0.85" stroke-width="5" stroke-linecap="round"/>
<path d="M535.91 6.87329C538.74 6.87329 540.039 7.65355 540.767 14.62" stroke="#251408" stroke-opacity="0.85" stroke-width="5" stroke-linecap="round"/>
<path d="M540.227 35.2778C540.227 42.1963 537.696 45.5069 535.371 46.8978" stroke="#251408" stroke-opacity="0.85" stroke-width="5" stroke-linecap="round"/>
<path d="M520.262 49.48H527.276" stroke="#251408" stroke-opacity="0.85" stroke-width="5" stroke-linecap="round"/>
<path d="M511.089 50.7709C509.373 50.7709 507.218 51.695 505.573 50.484C504.009 49.3327 503.032 48.1887 501.376 48.1887" stroke="#251408" stroke-opacity="0.85" stroke-width="5" stroke-linecap="round"/>
<path d="M481.95 49.48H492.742" stroke="#251408" stroke-opacity="0.85" stroke-width="5" stroke-linecap="round"/>
<path d="M455.511 46.8979H467.382" stroke="#251408" stroke-opacity="0.85" stroke-width="5" stroke-linecap="round"/>
<path d="M443.099 48.1887C438.288 48.1887 433.844 50.7709 429.069 50.7709" stroke="#251408" stroke-opacity="0.85" stroke-width="5" stroke-linecap="round"/>
<path d="M419.899 46.8978C416.017 44.2446 412.022 44.3156 408.027 44.3156" stroke="#251408" stroke-opacity="0.85" stroke-width="5" stroke-linecap="round"/>
<path d="M397.773 46.8979C394.525 46.8979 391.325 48.1891 388.061 48.1891" stroke="#251408" stroke-opacity="0.85" stroke-width="5" stroke-linecap="round"/>
<path d="M376.73 46.8979C373.401 46.8979 370.313 48.1891 367.018 48.1891" stroke="#251408" stroke-opacity="0.85" stroke-width="5" stroke-linecap="round"/>
<path d="M358.921 50.7711C355.089 50.7711 351.402 50.1816 347.59 49.48" stroke="#251408" stroke-opacity="0.85" stroke-width="5" stroke-linecap="round"/>
<path d="M324.389 49.48H334.101" stroke="#251408" stroke-opacity="0.85" stroke-width="5" stroke-linecap="round"/>
<path d="M304.423 46.8979H314.675" stroke="#251408" stroke-opacity="0.85" stroke-width="5" stroke-linecap="round"/>
<path d="M282.3 50.7712H295.79" stroke="#251408" stroke-opacity="0.85" stroke-width="5" stroke-linecap="round"/>
<path d="M258.557 48.1887H271.507" stroke="#251408" stroke-opacity="0.85" stroke-width="5" stroke-linecap="round"/>
<path d="M248.304 48.1887C243.476 48.1887 238.606 49.4798 233.735 49.4798" stroke="#251408" stroke-opacity="0.85" stroke-width="5" stroke-linecap="round"/>
<path d="M222.943 49.4798C219.698 49.4798 212.374 52.8478 209.453 48.1887" stroke="#251408" stroke-opacity="0.85" stroke-width="5" stroke-linecap="round"/>
<path d="M182.473 50.7712H199.2" stroke="#251408" stroke-opacity="0.85" stroke-width="5" stroke-linecap="round"/>
<path d="M170.604 50.7711C166.608 50.7711 162.709 49.48 158.732 49.48" stroke="#251408" stroke-opacity="0.85" stroke-width="5" stroke-linecap="round"/>
<path d="M149.09 49.895C146.533 49.895 143.972 49.9936 141.416 49.895C139.508 49.8214 137.97 47.3127 136.14 47.3127" stroke="#251408" stroke-opacity="0.85" stroke-width="5" stroke-linecap="round"/>
<path d="M114.483 49.48H126.894" stroke="#251408" stroke-opacity="0.85" stroke-width="5" stroke-linecap="round"/>
<path d="M102.073 48.1887C98.4617 48.1887 94.8717 49.4798 91.2812 49.4798" stroke="#251408" stroke-opacity="0.85" stroke-width="5" stroke-linecap="round"/>
<path d="M70.2373 49.48H79.4105" stroke="#251408" stroke-opacity="0.85" stroke-width="5" stroke-linecap="round"/>
<path d="M59.9851 50.7709C55.4768 50.7709 50.8777 50.8103 46.4951 48.1887" stroke="#251408" stroke-opacity="0.85" stroke-width="5" stroke-linecap="round"/>
<path d="M25.4492 48.1887H37.86" stroke="#251408" stroke-opacity="0.85" stroke-width="5" stroke-linecap="round"/>
<path d="M15.1981 49.4798C12.5554 49.4798 7.73004 51.7693 5.48535 48.1887" stroke="#251408" stroke-opacity="0.85" stroke-width="5" stroke-linecap="round"/>
<path d="M218.089 6.87329C216.043 6.87329 209.927 8.1644 211.974 8.1644C214.012 8.1644 216.051 8.1644 218.089 8.1644" stroke="#251408" stroke-opacity="0.85" stroke-width="5" stroke-linecap="round"/>
</svg>
