<svg width="434" height="54" viewBox="0 0 434 54" fill="none" xmlns="http://www.w3.org/2000/svg">
<path d="M6.24671 9.45557C4.5522 9.45557 3.77529 11.0858 3.24023 15.9111" stroke="#251408" stroke-opacity="0.85" stroke-width="5" stroke-linecap="round"/>
<path d="M2.81016 32.6956C2.81016 37.7538 2.58002 44.9457 4.52815 46.8978" stroke="#251408" stroke-opacity="0.85" stroke-width="5" stroke-linecap="round"/>
<path d="M13.9775 8.16431H22.997" stroke="#251408" stroke-opacity="0.85" stroke-width="5" stroke-linecap="round"/>
<path d="M32.0166 9.45542C35.0483 9.45542 38.044 9.66336 41.036 8.16431" stroke="#251408" stroke-opacity="0.85" stroke-width="5" stroke-linecap="round"/>
<path d="M47.0479 6.87329H56.9263" stroke="#251408" stroke-opacity="0.85" stroke-width="5" stroke-linecap="round"/>
<path d="M69.3818 8.16431C72.5377 8.16431 75.681 8.95707 78.8308 9.45542" stroke="#251408" stroke-opacity="0.85" stroke-width="5" stroke-linecap="round"/>
<path d="M90.8574 9.45561C94.2997 8.76576 97.7326 6.6685 101.165 5.58228" stroke="#251408" stroke-opacity="0.85" stroke-width="5" stroke-linecap="round"/>
<path d="M109.325 5.58228C113.775 5.58228 118.196 6.2662 122.64 6.87339" stroke="#251408" stroke-opacity="0.85" stroke-width="5" stroke-linecap="round"/>
<path d="M132.948 8.1644C135.549 8.1644 138.09 7.52188 140.679 6.87329" stroke="#251408" stroke-opacity="0.85" stroke-width="5" stroke-linecap="round"/>
<path d="M153.135 8.16431H161.725" stroke="#251408" stroke-opacity="0.85" stroke-width="5" stroke-linecap="round"/>
<path d="M173.751 8.16431H178.046" stroke="#251408" stroke-opacity="0.85" stroke-width="5" stroke-linecap="round"/>
<path d="M186.635 8.16431H196.084" stroke="#251408" stroke-opacity="0.85" stroke-width="5" stroke-linecap="round"/>
<path d="M207.251 5.58228H216.7" stroke="#251408" stroke-opacity="0.85" stroke-width="5" stroke-linecap="round"/>
<path d="M225.29 6.87339C227.611 6.87339 229.88 6.95415 232.162 5.58228" stroke="#251408" stroke-opacity="0.85" stroke-width="5" stroke-linecap="round"/>
<path d="M241.61 5.58228C244.637 6.28208 247.581 6.87339 250.63 6.87339" stroke="#251408" stroke-opacity="0.85" stroke-width="5" stroke-linecap="round"/>
<path d="M260.079 5.58228H274.252" stroke="#251408" stroke-opacity="0.85" stroke-width="5" stroke-linecap="round"/>
<path d="M283.701 4.29102C287.571 4.46209 291.427 5.58213 295.298 5.58213" stroke="#251408" stroke-opacity="0.85" stroke-width="5" stroke-linecap="round"/>
<path d="M303.888 5.58213C308.192 5.58213 312.474 4.8528 316.773 4.29102" stroke="#251408" stroke-opacity="0.85" stroke-width="5" stroke-linecap="round"/>
<path d="M327.08 6.87324C329.064 6.37615 331.196 5.92018 333.093 4.29102" stroke="#251408" stroke-opacity="0.85" stroke-width="5" stroke-linecap="round"/>
<path d="M339.105 6.87329H347.266" stroke="#251408" stroke-opacity="0.85" stroke-width="5" stroke-linecap="round"/>
<path d="M358.004 9.45542C361.738 8.65364 365.42 8.16431 369.171 8.16431" stroke="#251408" stroke-opacity="0.85" stroke-width="5" stroke-linecap="round"/>
<path d="M377.332 5.58228H385.922" stroke="#251408" stroke-opacity="0.85" stroke-width="5" stroke-linecap="round"/>
<path d="M396.23 5.58223C393.353 5.58223 402.029 5.09802 404.82 3" stroke="#251408" stroke-opacity="0.85" stroke-width="5" stroke-linecap="round"/>
<path d="M412.551 8.1644C414.861 8.1644 417.125 6.87329 419.423 6.87329" stroke="#251408" stroke-opacity="0.85" stroke-width="5" stroke-linecap="round"/>
<path d="M427.152 6.87329C429.405 6.87329 430.438 7.65355 431.018 14.62" stroke="#251408" stroke-opacity="0.85" stroke-width="5" stroke-linecap="round"/>
<path d="M430.589 35.2778C430.589 42.1963 428.574 45.5069 426.724 46.8978" stroke="#251408" stroke-opacity="0.85" stroke-width="5" stroke-linecap="round"/>
<path d="M414.697 49.48H420.281" stroke="#251408" stroke-opacity="0.85" stroke-width="5" stroke-linecap="round"/>
<path d="M407.396 50.7709C406.03 50.7709 404.315 51.695 403.006 50.484C401.761 49.3327 400.983 48.1887 399.665 48.1887" stroke="#251408" stroke-opacity="0.85" stroke-width="5" stroke-linecap="round"/>
<path d="M384.203 49.48H392.793" stroke="#251408" stroke-opacity="0.85" stroke-width="5" stroke-linecap="round"/>
<path d="M363.158 46.8979H372.607" stroke="#251408" stroke-opacity="0.85" stroke-width="5" stroke-linecap="round"/>
<path d="M353.279 48.1887C349.45 48.1887 345.913 50.7709 342.112 50.7709" stroke="#251408" stroke-opacity="0.85" stroke-width="5" stroke-linecap="round"/>
<path d="M334.812 46.8978C331.723 44.2446 328.543 44.3156 325.363 44.3156" stroke="#251408" stroke-opacity="0.85" stroke-width="5" stroke-linecap="round"/>
<path d="M317.202 46.8979C314.616 46.8979 312.069 48.1891 309.471 48.1891" stroke="#251408" stroke-opacity="0.85" stroke-width="5" stroke-linecap="round"/>
<path d="M300.453 46.8979C297.803 46.8979 295.344 48.1891 292.722 48.1891" stroke="#251408" stroke-opacity="0.85" stroke-width="5" stroke-linecap="round"/>
<path d="M286.277 50.7711C283.227 50.7711 280.292 50.1816 277.258 49.48" stroke="#251408" stroke-opacity="0.85" stroke-width="5" stroke-linecap="round"/>
<path d="M258.791 49.48H266.522" stroke="#251408" stroke-opacity="0.85" stroke-width="5" stroke-linecap="round"/>
<path d="M242.899 46.8979H251.06" stroke="#251408" stroke-opacity="0.85" stroke-width="5" stroke-linecap="round"/>
<path d="M225.29 50.7712H236.027" stroke="#251408" stroke-opacity="0.85" stroke-width="5" stroke-linecap="round"/>
<path d="M206.392 48.1887H216.7" stroke="#251408" stroke-opacity="0.85" stroke-width="5" stroke-linecap="round"/>
<path d="M198.231 48.1887C194.388 48.1887 190.511 49.4798 186.635 49.4798" stroke="#251408" stroke-opacity="0.85" stroke-width="5" stroke-linecap="round"/>
<path d="M178.045 49.4798C175.462 49.4798 169.632 52.8478 167.308 48.1887" stroke="#251408" stroke-opacity="0.85" stroke-width="5" stroke-linecap="round"/>
<path d="M145.832 50.7712H159.146" stroke="#251408" stroke-opacity="0.85" stroke-width="5" stroke-linecap="round"/>
<path d="M136.384 50.7711C133.204 50.7711 130.101 49.48 126.936 49.48" stroke="#251408" stroke-opacity="0.85" stroke-width="5" stroke-linecap="round"/>
<path d="M119.261 49.895C117.226 49.895 115.188 49.9936 113.153 49.895C111.634 49.8214 110.41 47.3127 108.953 47.3127" stroke="#251408" stroke-opacity="0.85" stroke-width="5" stroke-linecap="round"/>
<path d="M91.7158 49.48H101.594" stroke="#251408" stroke-opacity="0.85" stroke-width="5" stroke-linecap="round"/>
<path d="M81.838 48.1887C78.9634 48.1887 76.1059 49.4798 73.248 49.4798" stroke="#251408" stroke-opacity="0.85" stroke-width="5" stroke-linecap="round"/>
<path d="M56.498 49.48H63.7995" stroke="#251408" stroke-opacity="0.85" stroke-width="5" stroke-linecap="round"/>
<path d="M48.337 50.7709C44.7486 50.7709 41.0879 50.8103 37.5996 48.1887" stroke="#251408" stroke-opacity="0.85" stroke-width="5" stroke-linecap="round"/>
<path d="M20.8486 48.1887H30.727" stroke="#251408" stroke-opacity="0.85" stroke-width="5" stroke-linecap="round"/>
<path d="M12.6889 49.4798C10.5854 49.4798 6.74468 51.7693 4.95801 48.1887" stroke="#251408" stroke-opacity="0.85" stroke-width="5" stroke-linecap="round"/>
<path d="M174.181 6.87329C172.552 6.87329 167.684 8.1644 169.313 8.1644C170.936 8.1644 172.558 8.1644 174.181 8.1644" stroke="#251408" stroke-opacity="0.85" stroke-width="5" stroke-linecap="round"/>
</svg>
