<svg width="687" height="54" viewBox="0 0 687 54" fill="none" xmlns="http://www.w3.org/2000/svg">
<path d="M8.53055 9.45557C5.83421 9.45557 4.59798 11.0858 3.74658 15.9111" stroke="#251408" stroke-opacity="0.85" stroke-width="5" stroke-linecap="round"/>
<path d="M3.06318 32.6956C3.06318 37.7538 2.69696 44.9457 5.79688 46.8978" stroke="#251408" stroke-opacity="0.85" stroke-width="5" stroke-linecap="round"/>
<path d="M20.832 8.16431H35.1839" stroke="#251408" stroke-opacity="0.85" stroke-width="5" stroke-linecap="round"/>
<path d="M49.5366 9.45542C54.3608 9.45542 59.1276 9.66336 63.8885 8.16431" stroke="#251408" stroke-opacity="0.85" stroke-width="5" stroke-linecap="round"/>
<path d="M73.4565 6.87329H89.1753" stroke="#251408" stroke-opacity="0.85" stroke-width="5" stroke-linecap="round"/>
<path d="M108.994 8.16431C114.016 8.16431 119.017 8.95707 124.029 9.45542" stroke="#251408" stroke-opacity="0.85" stroke-width="5" stroke-linecap="round"/>
<path d="M143.165 9.45561C148.642 8.76576 154.105 6.6685 159.567 5.58228" stroke="#251408" stroke-opacity="0.85" stroke-width="5" stroke-linecap="round"/>
<path d="M172.553 5.58228C179.634 5.58228 186.668 6.2662 193.739 6.87339" stroke="#251408" stroke-opacity="0.85" stroke-width="5" stroke-linecap="round"/>
<path d="M210.141 8.1644C214.279 8.1644 218.323 7.52188 222.443 6.87329" stroke="#251408" stroke-opacity="0.85" stroke-width="5" stroke-linecap="round"/>
<path d="M242.262 8.16431H255.93" stroke="#251408" stroke-opacity="0.85" stroke-width="5" stroke-linecap="round"/>
<path d="M275.066 8.16431H281.901" stroke="#251408" stroke-opacity="0.85" stroke-width="5" stroke-linecap="round"/>
<path d="M295.569 8.16431H310.605" stroke="#251408" stroke-opacity="0.85" stroke-width="5" stroke-linecap="round"/>
<path d="M328.373 5.58228H343.408" stroke="#251408" stroke-opacity="0.85" stroke-width="5" stroke-linecap="round"/>
<path d="M357.078 6.87339C360.771 6.87339 364.382 6.95415 368.013 5.58228" stroke="#251408" stroke-opacity="0.85" stroke-width="5" stroke-linecap="round"/>
<path d="M383.047 5.58228C387.862 6.28208 392.548 6.87339 397.399 6.87339" stroke="#251408" stroke-opacity="0.85" stroke-width="5" stroke-linecap="round"/>
<path d="M412.435 5.58228H434.988" stroke="#251408" stroke-opacity="0.85" stroke-width="5" stroke-linecap="round"/>
<path d="M450.023 4.29102C456.181 4.46209 462.317 5.58213 468.476 5.58213" stroke="#251408" stroke-opacity="0.85" stroke-width="5" stroke-linecap="round"/>
<path d="M482.145 5.58213C488.993 5.58213 495.808 4.8528 502.647 4.29102" stroke="#251408" stroke-opacity="0.85" stroke-width="5" stroke-linecap="round"/>
<path d="M519.049 6.87324C522.206 6.37615 525.598 5.92018 528.617 4.29102" stroke="#251408" stroke-opacity="0.85" stroke-width="5" stroke-linecap="round"/>
<path d="M538.185 6.87329H551.17" stroke="#251408" stroke-opacity="0.85" stroke-width="5" stroke-linecap="round"/>
<path d="M568.255 9.45542C574.197 8.65364 580.056 8.16431 586.024 8.16431" stroke="#251408" stroke-opacity="0.85" stroke-width="5" stroke-linecap="round"/>
<path d="M599.01 5.58228H612.678" stroke="#251408" stroke-opacity="0.85" stroke-width="5" stroke-linecap="round"/>
<path d="M629.08 5.58223C624.502 5.58223 638.307 5.09802 642.749 3" stroke="#251408" stroke-opacity="0.85" stroke-width="5" stroke-linecap="round"/>
<path d="M655.051 8.1644C658.726 8.1644 662.329 6.87329 665.986 6.87329" stroke="#251408" stroke-opacity="0.85" stroke-width="5" stroke-linecap="round"/>
<path d="M678.287 6.87329C681.871 6.87329 683.516 7.65355 684.438 14.62" stroke="#251408" stroke-opacity="0.85" stroke-width="5" stroke-linecap="round"/>
<path d="M683.753 35.2778C683.753 42.1963 680.548 45.5069 677.603 46.8978" stroke="#251408" stroke-opacity="0.85" stroke-width="5" stroke-linecap="round"/>
<path d="M658.467 49.48H667.351" stroke="#251408" stroke-opacity="0.85" stroke-width="5" stroke-linecap="round"/>
<path d="M646.849 50.7709C644.676 50.7709 641.946 51.695 639.862 50.484C637.882 49.3327 636.644 48.1887 634.547 48.1887" stroke="#251408" stroke-opacity="0.85" stroke-width="5" stroke-linecap="round"/>
<path d="M609.944 49.48H623.613" stroke="#251408" stroke-opacity="0.85" stroke-width="5" stroke-linecap="round"/>
<path d="M576.456 46.8979H591.491" stroke="#251408" stroke-opacity="0.85" stroke-width="5" stroke-linecap="round"/>
<path d="M560.738 48.1887C554.644 48.1887 549.017 50.7709 542.969 50.7709" stroke="#251408" stroke-opacity="0.85" stroke-width="5" stroke-linecap="round"/>
<path d="M531.351 46.8978C526.435 44.2446 521.375 44.3156 516.315 44.3156" stroke="#251408" stroke-opacity="0.85" stroke-width="5" stroke-linecap="round"/>
<path d="M503.329 46.8979C499.215 46.8979 495.162 48.1891 491.027 48.1891" stroke="#251408" stroke-opacity="0.85" stroke-width="5" stroke-linecap="round"/>
<path d="M476.677 46.8979C472.46 46.8979 468.548 48.1891 464.375 48.1891" stroke="#251408" stroke-opacity="0.85" stroke-width="5" stroke-linecap="round"/>
<path d="M454.123 50.7711C449.27 50.7711 444.599 50.1816 439.771 49.48" stroke="#251408" stroke-opacity="0.85" stroke-width="5" stroke-linecap="round"/>
<path d="M410.385 49.48H422.686" stroke="#251408" stroke-opacity="0.85" stroke-width="5" stroke-linecap="round"/>
<path d="M385.098 46.8979H398.083" stroke="#251408" stroke-opacity="0.85" stroke-width="5" stroke-linecap="round"/>
<path d="M357.078 50.7712H374.164" stroke="#251408" stroke-opacity="0.85" stroke-width="5" stroke-linecap="round"/>
<path d="M327.006 48.1887H343.408" stroke="#251408" stroke-opacity="0.85" stroke-width="5" stroke-linecap="round"/>
<path d="M314.022 48.1887C307.907 48.1887 301.738 49.4798 295.569 49.4798" stroke="#251408" stroke-opacity="0.85" stroke-width="5" stroke-linecap="round"/>
<path d="M281.9 49.4798C277.79 49.4798 268.514 52.8478 264.814 48.1887" stroke="#251408" stroke-opacity="0.85" stroke-width="5" stroke-linecap="round"/>
<path d="M230.644 50.7712H251.83" stroke="#251408" stroke-opacity="0.85" stroke-width="5" stroke-linecap="round"/>
<path d="M215.609 50.7711C210.548 50.7711 205.61 49.48 200.573 49.48" stroke="#251408" stroke-opacity="0.85" stroke-width="5" stroke-linecap="round"/>
<path d="M188.361 49.895C185.122 49.895 181.879 49.9936 178.641 49.895C176.226 49.8214 174.278 47.3127 171.959 47.3127" stroke="#251408" stroke-opacity="0.85" stroke-width="5" stroke-linecap="round"/>
<path d="M144.532 49.48H160.251" stroke="#251408" stroke-opacity="0.85" stroke-width="5" stroke-linecap="round"/>
<path d="M128.814 48.1887C124.24 48.1887 119.693 49.4798 115.146 49.4798" stroke="#251408" stroke-opacity="0.85" stroke-width="5" stroke-linecap="round"/>
<path d="M88.4912 49.48H100.109" stroke="#251408" stroke-opacity="0.85" stroke-width="5" stroke-linecap="round"/>
<path d="M75.506 50.7709C69.7961 50.7709 63.9711 50.8103 58.4204 48.1887" stroke="#251408" stroke-opacity="0.85" stroke-width="5" stroke-linecap="round"/>
<path d="M31.7676 48.1887H47.4863" stroke="#251408" stroke-opacity="0.85" stroke-width="5" stroke-linecap="round"/>
<path d="M18.7821 49.4798C15.435 49.4798 9.32346 51.7693 6.48047 48.1887" stroke="#251408" stroke-opacity="0.85" stroke-width="5" stroke-linecap="round"/>
<path d="M275.75 6.87329C273.158 6.87329 265.413 8.1644 268.005 8.1644C270.587 8.1644 273.168 8.1644 275.75 8.1644" stroke="#251408" stroke-opacity="0.85" stroke-width="5" stroke-linecap="round"/>
</svg>
