<svg width="937" height="54" viewBox="0 0 937 54" fill="none" xmlns="http://www.w3.org/2000/svg">
<path d="M10.0882 9.02783C6.403 9.02783 4.71343 10.6581 3.5498 15.4834" stroke="#251408" stroke-opacity="0.85" stroke-width="5" stroke-linecap="round"/>
<path d="M2.61594 32.2678C2.61594 37.3261 2.11542 44.518 6.35214 46.4701" stroke="#251408" stroke-opacity="0.85" stroke-width="5" stroke-linecap="round"/>
<path d="M26.9009 7.73657H46.5159" stroke="#251408" stroke-opacity="0.85" stroke-width="5" stroke-linecap="round"/>
<path d="M66.1323 9.02769C72.7256 9.02769 79.2405 9.23563 85.7474 7.73657" stroke="#251408" stroke-opacity="0.85" stroke-width="5" stroke-linecap="round"/>
<path d="M98.8237 6.44556H120.307" stroke="#251408" stroke-opacity="0.85" stroke-width="5" stroke-linecap="round"/>
<path d="M147.394 7.73657C154.257 7.73657 161.093 8.52934 167.943 9.02769" stroke="#251408" stroke-opacity="0.85" stroke-width="5" stroke-linecap="round"/>
<path d="M194.096 9.02788C201.582 8.33802 209.048 6.24077 216.513 5.15454" stroke="#251408" stroke-opacity="0.85" stroke-width="5" stroke-linecap="round"/>
<path d="M234.261 5.15454C243.938 5.15454 253.552 5.83846 263.216 6.44565" stroke="#251408" stroke-opacity="0.85" stroke-width="5" stroke-linecap="round"/>
<path d="M285.634 7.73667C291.29 7.73667 296.816 7.09414 302.447 6.44556" stroke="#251408" stroke-opacity="0.85" stroke-width="5" stroke-linecap="round"/>
<path d="M329.533 7.73657H348.214" stroke="#251408" stroke-opacity="0.85" stroke-width="5" stroke-linecap="round"/>
<path d="M374.369 7.73657H383.709" stroke="#251408" stroke-opacity="0.85" stroke-width="5" stroke-linecap="round"/>
<path d="M402.391 7.73657H422.94" stroke="#251408" stroke-opacity="0.85" stroke-width="5" stroke-linecap="round"/>
<path d="M447.224 5.15454H467.773" stroke="#251408" stroke-opacity="0.85" stroke-width="5" stroke-linecap="round"/>
<path d="M486.455 6.44565C491.502 6.44565 496.437 6.52641 501.399 5.15454" stroke="#251408" stroke-opacity="0.85" stroke-width="5" stroke-linecap="round"/>
<path d="M521.948 5.15454C528.529 5.85435 534.933 6.44565 541.563 6.44565" stroke="#251408" stroke-opacity="0.85" stroke-width="5" stroke-linecap="round"/>
<path d="M562.112 5.15454H592.936" stroke="#251408" stroke-opacity="0.85" stroke-width="5" stroke-linecap="round"/>
<path d="M613.485 3.86328C621.901 4.03435 630.287 5.15439 638.705 5.15439" stroke="#251408" stroke-opacity="0.85" stroke-width="5" stroke-linecap="round"/>
<path d="M657.386 5.15439C666.746 5.15439 676.06 4.42507 685.407 3.86328" stroke="#251408" stroke-opacity="0.85" stroke-width="5" stroke-linecap="round"/>
<path d="M707.824 6.44551C712.14 5.94841 716.776 5.49245 720.901 3.86328" stroke="#251408" stroke-opacity="0.85" stroke-width="5" stroke-linecap="round"/>
<path d="M733.978 6.44556H751.724" stroke="#251408" stroke-opacity="0.85" stroke-width="5" stroke-linecap="round"/>
<path d="M775.075 9.02769C783.196 8.22591 791.204 7.73657 799.36 7.73657" stroke="#251408" stroke-opacity="0.85" stroke-width="5" stroke-linecap="round"/>
<path d="M817.108 5.15454H835.789" stroke="#251408" stroke-opacity="0.85" stroke-width="5" stroke-linecap="round"/>
<path d="M858.206 5.15449C851.948 5.15449 870.816 4.67028 876.887 2.57227" stroke="#251408" stroke-opacity="0.85" stroke-width="5" stroke-linecap="round"/>
<path d="M893.701 7.73667C898.725 7.73667 903.649 6.44556 908.646 6.44556" stroke="#251408" stroke-opacity="0.85" stroke-width="5" stroke-linecap="round"/>
<path d="M925.458 6.44556C930.356 6.44556 932.605 7.22581 933.864 14.1922" stroke="#251408" stroke-opacity="0.85" stroke-width="5" stroke-linecap="round"/>
<path d="M932.93 34.8501C932.93 41.7686 928.548 45.0792 924.523 46.4701" stroke="#251408" stroke-opacity="0.85" stroke-width="5" stroke-linecap="round"/>
<path d="M898.37 49.0522H910.513" stroke="#251408" stroke-opacity="0.85" stroke-width="5" stroke-linecap="round"/>
<path d="M882.491 50.3432C879.521 50.3432 875.79 51.2673 872.943 50.0563C870.236 48.905 868.544 47.761 865.678 47.761" stroke="#251408" stroke-opacity="0.85" stroke-width="5" stroke-linecap="round"/>
<path d="M832.053 49.0522H850.734" stroke="#251408" stroke-opacity="0.85" stroke-width="5" stroke-linecap="round"/>
<path d="M786.284 46.4702H806.833" stroke="#251408" stroke-opacity="0.85" stroke-width="5" stroke-linecap="round"/>
<path d="M764.801 47.761C756.473 47.761 748.781 50.3432 740.516 50.3432" stroke="#251408" stroke-opacity="0.85" stroke-width="5" stroke-linecap="round"/>
<path d="M724.637 46.4701C717.919 43.8169 711.003 43.8879 704.088 43.8879" stroke="#251408" stroke-opacity="0.85" stroke-width="5" stroke-linecap="round"/>
<path d="M686.341 46.4702C680.718 46.4702 675.179 47.7613 669.528 47.7613" stroke="#251408" stroke-opacity="0.85" stroke-width="5" stroke-linecap="round"/>
<path d="M649.913 46.4702C644.15 46.4702 638.804 47.7613 633.1 47.7613" stroke="#251408" stroke-opacity="0.85" stroke-width="5" stroke-linecap="round"/>
<path d="M619.089 50.3434C612.456 50.3434 606.072 49.7538 599.474 49.0522" stroke="#251408" stroke-opacity="0.85" stroke-width="5" stroke-linecap="round"/>
<path d="M559.311 49.0522H576.123" stroke="#251408" stroke-opacity="0.85" stroke-width="5" stroke-linecap="round"/>
<path d="M524.75 46.4702H542.497" stroke="#251408" stroke-opacity="0.85" stroke-width="5" stroke-linecap="round"/>
<path d="M486.455 50.3435H509.806" stroke="#251408" stroke-opacity="0.85" stroke-width="5" stroke-linecap="round"/>
<path d="M445.355 47.761H467.773" stroke="#251408" stroke-opacity="0.85" stroke-width="5" stroke-linecap="round"/>
<path d="M427.61 47.761C419.252 47.761 410.821 49.0521 402.391 49.0521" stroke="#251408" stroke-opacity="0.85" stroke-width="5" stroke-linecap="round"/>
<path d="M383.709 49.0521C378.092 49.0521 365.414 52.4201 360.358 47.761" stroke="#251408" stroke-opacity="0.85" stroke-width="5" stroke-linecap="round"/>
<path d="M313.655 50.3435H342.611" stroke="#251408" stroke-opacity="0.85" stroke-width="5" stroke-linecap="round"/>
<path d="M293.105 50.3434C286.189 50.3434 279.44 49.0522 272.556 49.0522" stroke="#251408" stroke-opacity="0.85" stroke-width="5" stroke-linecap="round"/>
<path d="M255.866 49.4672C251.44 49.4672 247.008 49.5659 242.582 49.4672C239.28 49.3936 236.618 46.885 233.449 46.885" stroke="#251408" stroke-opacity="0.85" stroke-width="5" stroke-linecap="round"/>
<path d="M195.964 49.0522H217.448" stroke="#251408" stroke-opacity="0.85" stroke-width="5" stroke-linecap="round"/>
<path d="M174.482 47.761C168.23 47.761 162.016 49.0521 155.801 49.0521" stroke="#251408" stroke-opacity="0.85" stroke-width="5" stroke-linecap="round"/>
<path d="M119.372 49.0522H135.251" stroke="#251408" stroke-opacity="0.85" stroke-width="5" stroke-linecap="round"/>
<path d="M101.625 50.3432C93.8213 50.3432 85.8602 50.3826 78.2739 47.761" stroke="#251408" stroke-opacity="0.85" stroke-width="5" stroke-linecap="round"/>
<path d="M41.8467 47.761H63.3298" stroke="#251408" stroke-opacity="0.85" stroke-width="5" stroke-linecap="round"/>
<path d="M24.099 49.0521C19.5244 49.0521 11.1717 51.3416 7.28613 47.761" stroke="#251408" stroke-opacity="0.85" stroke-width="5" stroke-linecap="round"/>
<path d="M375.303 6.44556C371.761 6.44556 361.175 7.73667 364.717 7.73667C368.246 7.73667 371.774 7.73667 375.303 7.73667" stroke="#251408" stroke-opacity="0.85" stroke-width="5" stroke-linecap="round"/>
</svg>
