<svg width="336" height="54" viewBox="0 0 336 54" fill="none" xmlns="http://www.w3.org/2000/svg">
<path d="M5.58959 9.45557C4.28251 9.45557 3.68323 11.0858 3.27051 15.9111" stroke="#251408" stroke-opacity="0.85" stroke-width="5" stroke-linecap="round"/>
<path d="M2.9391 32.6956C2.9391 37.7538 2.76157 44.9457 4.26429 46.8978" stroke="#251408" stroke-opacity="0.85" stroke-width="5" stroke-linecap="round"/>
<path d="M11.5527 8.16431H18.51" stroke="#251408" stroke-opacity="0.85" stroke-width="5" stroke-linecap="round"/>
<path d="M25.4678 9.45542C27.8063 9.45542 30.1171 9.66336 32.425 8.16431" stroke="#251408" stroke-opacity="0.85" stroke-width="5" stroke-linecap="round"/>
<path d="M37.0625 6.87329H44.6823" stroke="#251408" stroke-opacity="0.85" stroke-width="5" stroke-linecap="round"/>
<path d="M54.29 8.16431C56.7244 8.16431 59.1489 8.95707 61.5786 9.45542" stroke="#251408" stroke-opacity="0.85" stroke-width="5" stroke-linecap="round"/>
<path d="M70.8555 9.45561C73.5107 8.76576 76.1587 6.6685 78.8066 5.58228" stroke="#251408" stroke-opacity="0.85" stroke-width="5" stroke-linecap="round"/>
<path d="M85.1006 5.58228C88.5331 5.58228 91.9431 6.2662 95.3708 6.87339" stroke="#251408" stroke-opacity="0.85" stroke-width="5" stroke-linecap="round"/>
<path d="M103.322 8.1644C105.328 8.1644 107.289 7.52188 109.286 6.87329" stroke="#251408" stroke-opacity="0.85" stroke-width="5" stroke-linecap="round"/>
<path d="M118.894 8.16431H125.519" stroke="#251408" stroke-opacity="0.85" stroke-width="5" stroke-linecap="round"/>
<path d="M134.796 8.16431H138.109" stroke="#251408" stroke-opacity="0.85" stroke-width="5" stroke-linecap="round"/>
<path d="M144.734 8.16431H152.023" stroke="#251408" stroke-opacity="0.85" stroke-width="5" stroke-linecap="round"/>
<path d="M160.637 5.58228H167.925" stroke="#251408" stroke-opacity="0.85" stroke-width="5" stroke-linecap="round"/>
<path d="M174.552 6.87339C176.342 6.87339 178.092 6.95415 179.853 5.58228" stroke="#251408" stroke-opacity="0.85" stroke-width="5" stroke-linecap="round"/>
<path d="M187.141 5.58228C189.475 6.28208 191.747 6.87339 194.098 6.87339" stroke="#251408" stroke-opacity="0.85" stroke-width="5" stroke-linecap="round"/>
<path d="M201.387 5.58228H212.32" stroke="#251408" stroke-opacity="0.85" stroke-width="5" stroke-linecap="round"/>
<path d="M219.607 4.29102C222.592 4.46209 225.567 5.58213 228.552 5.58213" stroke="#251408" stroke-opacity="0.85" stroke-width="5" stroke-linecap="round"/>
<path d="M235.179 5.58213C238.499 5.58213 241.802 4.8528 245.118 4.29102" stroke="#251408" stroke-opacity="0.85" stroke-width="5" stroke-linecap="round"/>
<path d="M253.068 6.87324C254.599 6.37615 256.243 5.92018 257.707 4.29102" stroke="#251408" stroke-opacity="0.85" stroke-width="5" stroke-linecap="round"/>
<path d="M262.345 6.87329H268.639" stroke="#251408" stroke-opacity="0.85" stroke-width="5" stroke-linecap="round"/>
<path d="M276.922 9.45542C279.802 8.65364 282.642 8.16431 285.536 8.16431" stroke="#251408" stroke-opacity="0.85" stroke-width="5" stroke-linecap="round"/>
<path d="M291.831 5.58228H298.457" stroke="#251408" stroke-opacity="0.85" stroke-width="5" stroke-linecap="round"/>
<path d="M306.408 5.58223C304.188 5.58223 310.881 5.09802 313.034 3" stroke="#251408" stroke-opacity="0.85" stroke-width="5" stroke-linecap="round"/>
<path d="M318.997 8.1644C320.779 8.1644 322.525 6.87329 324.298 6.87329" stroke="#251408" stroke-opacity="0.85" stroke-width="5" stroke-linecap="round"/>
<path d="M330.261 6.87329C331.998 6.87329 332.796 7.65355 333.242 14.62" stroke="#251408" stroke-opacity="0.85" stroke-width="5" stroke-linecap="round"/>
<path d="M332.911 35.2778C332.911 42.1963 331.357 45.5069 329.93 46.8978" stroke="#251408" stroke-opacity="0.85" stroke-width="5" stroke-linecap="round"/>
<path d="M320.653 49.48H324.96" stroke="#251408" stroke-opacity="0.85" stroke-width="5" stroke-linecap="round"/>
<path d="M315.021 50.7709C313.968 50.7709 312.644 51.695 311.634 50.484C310.674 49.3327 310.074 48.1887 309.058 48.1887" stroke="#251408" stroke-opacity="0.85" stroke-width="5" stroke-linecap="round"/>
<path d="M297.131 49.48H303.757" stroke="#251408" stroke-opacity="0.85" stroke-width="5" stroke-linecap="round"/>
<path d="M280.897 46.8979H288.186" stroke="#251408" stroke-opacity="0.85" stroke-width="5" stroke-linecap="round"/>
<path d="M273.278 48.1887C270.324 48.1887 267.596 50.7709 264.664 50.7709" stroke="#251408" stroke-opacity="0.85" stroke-width="5" stroke-linecap="round"/>
<path d="M259.033 46.8978C256.65 44.2446 254.197 44.3156 251.744 44.3156" stroke="#251408" stroke-opacity="0.85" stroke-width="5" stroke-linecap="round"/>
<path d="M245.449 46.8979C243.454 46.8979 241.49 48.1891 239.485 48.1891" stroke="#251408" stroke-opacity="0.85" stroke-width="5" stroke-linecap="round"/>
<path d="M232.529 46.8979C230.485 46.8979 228.588 48.1891 226.565 48.1891" stroke="#251408" stroke-opacity="0.85" stroke-width="5" stroke-linecap="round"/>
<path d="M221.595 50.7711C219.242 50.7711 216.978 50.1816 214.638 49.48" stroke="#251408" stroke-opacity="0.85" stroke-width="5" stroke-linecap="round"/>
<path d="M200.393 49.48H206.356" stroke="#251408" stroke-opacity="0.85" stroke-width="5" stroke-linecap="round"/>
<path d="M188.135 46.8979H194.429" stroke="#251408" stroke-opacity="0.85" stroke-width="5" stroke-linecap="round"/>
<path d="M174.552 50.7712H182.834" stroke="#251408" stroke-opacity="0.85" stroke-width="5" stroke-linecap="round"/>
<path d="M159.974 48.1887H167.925" stroke="#251408" stroke-opacity="0.85" stroke-width="5" stroke-linecap="round"/>
<path d="M153.679 48.1887C150.715 48.1887 147.725 49.4798 144.734 49.4798" stroke="#251408" stroke-opacity="0.85" stroke-width="5" stroke-linecap="round"/>
<path d="M138.109 49.4798C136.116 49.4798 131.619 52.8478 129.826 48.1887" stroke="#251408" stroke-opacity="0.85" stroke-width="5" stroke-linecap="round"/>
<path d="M113.261 50.7712H123.531" stroke="#251408" stroke-opacity="0.85" stroke-width="5" stroke-linecap="round"/>
<path d="M105.973 50.7711C103.52 50.7711 101.126 49.48 98.6846 49.48" stroke="#251408" stroke-opacity="0.85" stroke-width="5" stroke-linecap="round"/>
<path d="M92.7646 49.895C91.1946 49.895 89.6225 49.9936 88.0528 49.895C86.8818 49.8214 85.9375 47.3127 84.8135 47.3127" stroke="#251408" stroke-opacity="0.85" stroke-width="5" stroke-linecap="round"/>
<path d="M71.5176 49.48H79.1374" stroke="#251408" stroke-opacity="0.85" stroke-width="5" stroke-linecap="round"/>
<path d="M63.8984 48.1887C61.681 48.1887 59.4769 49.4798 57.2725 49.4798" stroke="#251408" stroke-opacity="0.85" stroke-width="5" stroke-linecap="round"/>
<path d="M44.3516 49.48H49.9836" stroke="#251408" stroke-opacity="0.85" stroke-width="5" stroke-linecap="round"/>
<path d="M38.0568 50.7709C35.2889 50.7709 32.4652 50.8103 29.7744 48.1887" stroke="#251408" stroke-opacity="0.85" stroke-width="5" stroke-linecap="round"/>
<path d="M16.8535 48.1887H24.4733" stroke="#251408" stroke-opacity="0.85" stroke-width="5" stroke-linecap="round"/>
<path d="M10.5591 49.4798C8.93648 49.4798 5.97387 51.7693 4.5957 48.1887" stroke="#251408" stroke-opacity="0.85" stroke-width="5" stroke-linecap="round"/>
<path d="M135.127 6.87329C133.871 6.87329 130.116 8.1644 131.373 8.1644C132.624 8.1644 133.876 8.1644 135.127 8.1644" stroke="#251408" stroke-opacity="0.85" stroke-width="5" stroke-linecap="round"/>
</svg>
