<svg width="741" height="191" viewBox="0 0 741 191" fill="none" xmlns="http://www.w3.org/2000/svg">
<path d="M64.3604 5.6925H94.1359" stroke="black" stroke-width="3" stroke-linecap="round"/>
<path d="M128.018 3.63904H161.9" stroke="black" stroke-width="3" stroke-linecap="round"/>
<path d="M186.542 3.63904H212.211" stroke="black" stroke-width="3" stroke-linecap="round"/>
<path d="M252.254 5.69247C261.158 5.69247 270.087 4.73271 279.063 4.66573C286.652 4.6091 293.989 2.61224 301.538 2.61224" stroke="black" stroke-width="3" stroke-linecap="round"/>
<path d="M329.26 1.58551C340.089 3.28419 351.185 2.61225 362.116 2.61225" stroke="black" stroke-width="3" stroke-linecap="round"/>
<path d="M406.266 4.66577C412.169 7.02697 419.998 5.69251 426.344 5.69251C432.657 5.69251 438.969 5.69251 445.282 5.69251" stroke="black" stroke-width="3" stroke-linecap="round"/>
<path d="M486.352 2.61224C501 4.82336 515.714 4.66573 530.502 4.66573" stroke="black" stroke-width="3" stroke-linecap="round"/>
<path d="M568.491 5.6925C580.998 6.58583 592.89 7.74599 605.454 7.74599" stroke="black" stroke-width="3" stroke-linecap="round"/>
<path d="M637.282 6.71923C656.853 6.71923 677.548 6.60297 695.807 13.9064" stroke="black" stroke-width="3" stroke-linecap="round"/>
<path d="M711.208 21.0936C713.51 23.396 715.469 26.649 716.912 29.5357C718.426 32.5625 720.364 41.0725 723.529 42.6552" stroke="black" stroke-width="3" stroke-linecap="round"/>
<path d="M732.77 57.0297C733.845 62.0471 736.877 66.411 736.877 71.6322C736.877 74.9787 736.877 78.3251 736.877 81.6715" stroke="black" stroke-width="3" stroke-linecap="round"/>
<path d="M737.903 96.0459C740.738 102.069 738.93 112.742 738.93 119.661" stroke="black" stroke-width="3" stroke-linecap="round"/>
<path d="M736.876 138.142C735.449 144.208 734.097 148.472 730.716 153.543" stroke="black" stroke-width="3" stroke-linecap="round"/>
<path d="M723.529 160.731C720.834 163.426 719.957 167.231 717.369 169.971C714.572 172.932 708.936 175.863 705.048 177.159" stroke="black" stroke-width="3" stroke-linecap="round"/>
<path d="M681.433 182.292C665.606 188.623 649.384 188.453 632.72 188.453C620.215 188.453 607.322 189.709 595.187 186.399" stroke="black" stroke-width="3" stroke-linecap="round"/>
<path d="M580.812 183.319C577.368 184.85 573.211 184.634 569.518 185.373" stroke="black" stroke-width="3" stroke-linecap="round"/>
<path d="M530.502 183.319C525.887 185.262 520.01 184.346 515.101 184.346" stroke="black" stroke-width="3" stroke-linecap="round"/>
<path d="M463.763 183.319C448.261 182.745 432.671 181.543 417.56 178.185" stroke="black" stroke-width="3" stroke-linecap="round"/>
<path d="M363.142 178.185C353.18 179.016 343.41 179.212 333.366 179.212" stroke="black" stroke-width="3" stroke-linecap="round"/>
<path d="M271.762 175.105H296.404" stroke="black" stroke-width="3" stroke-linecap="round"/>
<path d="M229.666 176.132C217.195 179.888 206.802 180.781 193.729 181.266" stroke="black" stroke-width="3" stroke-linecap="round"/>
<path d="M154.714 181.266C145.048 181.695 135.774 183.319 125.965 183.319" stroke="black" stroke-width="3" stroke-linecap="round"/>
<path d="M81.8145 182.292H97.2156" stroke="black" stroke-width="3" stroke-linecap="round"/>
<path d="M47.9315 177.159C43.9772 177.159 40.7962 175.401 37.6641 173.052" stroke="black" stroke-width="3" stroke-linecap="round"/>
<path d="M24.3166 165.864C16.2013 155.315 12.0253 141.312 7.88867 128.902" stroke="black" stroke-width="3" stroke-linecap="round"/>
<path d="M2.75526 107.34C2.75526 97.9972 3.04941 88.8642 1.72852 79.618" stroke="black" stroke-width="3" stroke-linecap="round"/>
<path d="M1.72852 58.0564C2.5489 47.3914 9.74396 36.7261 14.0494 27.2541" stroke="black" stroke-width="3" stroke-linecap="round"/>
<path d="M19.1836 18.0134C22.0537 13.7926 25.5035 10.904 29.451 7.74597" stroke="black" stroke-width="3" stroke-linecap="round"/>
<path d="M41.7715 6.71924C46.2378 6.99838 50.6356 7.74598 55.1191 7.74598" stroke="black" stroke-width="3" stroke-linecap="round"/>
</svg>
